<svg xmlns="http://www.w3.org/2000/svg" viewBox="0 0 316.23909 449.34891"><defs><style>.cls-1{fill:#98caee;}.cls-2{fill:#4287c0;}</style></defs><title>Logo 1</title><g id="Layer_2" data-name="Layer 2"><g id="Lag_1" data-name="Lag 1"><path class="cls-1" d="M316.20314,68.64322a64.65126,64.65126,0,0,0-.7901-11.90631C308.88179,22.24411,282.01076.0192,246.97627.00821,245.59835.00778,225.23.00815,223.852.00772V40.017c1.20154-.00824,21.39372-.01056,22.59525-.01917a29.339,29.339,0,0,1,29.83545,30.10028c-.51,51.54639-.18176,103.10108-.18176,154.65253q-.00009,77.57665-.00232,155.15326c-.00214,17.64435-11.61334,29.25592-29.38208,29.264-58.99792.027-117.99652-.14093-176.99347.1001-18.24493.07452-29.54236-14.51441-29.4917-29.34632.03137-9.18829.18695-20.05465.21295-29.24294H.02175c.00225,8.68231.00164,19.04263.00439,27.72494a98.3883,98.3883,0,0,0,.62763,10.92242A67.34,67.34,0,0,0,67.68233,449.333q90.49338.02838,180.98657-.06226a65.09908,65.09908,0,0,0,14.28955-1.5711c32.30628-7.38794,53.26618-33.94965,53.27417-67.2461q.0185-77.82787.00324-155.65576Q316.23586,146.72046,316.20314,68.64322Z"/><rect class="cls-1" x="232.5511" y="227.66181" width="15.68636" height="36.33433" transform="translate(480.78855 491.65796) rotate(180)"/><circle class="cls-1" cx="240.39428" cy="227.66181" r="7.84318"/><circle class="cls-1" cx="240.39428" cy="263.99615" r="7.84318"/><rect class="cls-1" x="234.83058" y="77.01958" width="15.68636" height="36.33433" transform="translate(485.34752 190.37349) rotate(180)"/><circle class="cls-1" cx="242.67376" cy="77.01958" r="7.84318"/><circle class="cls-1" cx="242.67376" cy="113.35391" r="7.84318"/><rect class="cls-1" x="213.82963" y="116.16566" width="40.49066" height="104.90446" transform="translate(402.69285 -65.45707) rotate(90)"/><path class="cls-2" d="M40.44435,296.92819c.10724-73.1513.04865-154.16107-.20941-227.31164a29.14608,29.14608,0,0,1,29.71924-29.608c36.53259.24652,64.44405.32525,100.97835.26367V0c-36.69208-.00055-64.76076.006-101.45284.03168A69.79455,69.79455,0,0,0,57.56331.7308C22.85518,6.79868.00093,34.2161.00032,69.5867-.0009,142.74789.00106,223.767.01119,296.92819Z"/><rect class="cls-2" x="59.84606" y="120.83713" width="40.49066" height="95.56152" transform="translate(248.70927 88.5265) rotate(90)"/><circle class="cls-1" cx="20.2319" cy="350.67878" r="20.2319"/><circle class="cls-2" cx="20.2319" cy="296.92819" r="20.2319"/><circle class="cls-1" cx="181.62273" cy="168.61789" r="20.2319"/><circle class="cls-2" cx="127.87214" cy="168.61789" r="20.2319"/><circle class="cls-1" cx="224.0793" cy="20.01237" r="20.00463"/><circle class="cls-2" cx="170.93253" cy="20.14" r="20.13225"/></g></g></svg>